<?xml version="1.0" standalone="no"?>
<!DOCTYPE svg PUBLIC "-//W3C//DTD SVG 20010904//EN"
 "http://www.w3.org/TR/2001/REC-SVG-20010904/DTD/svg10.dtd">
<svg version="1.0" xmlns="http://www.w3.org/2000/svg"
 width="1024.000000pt" height="1024.000000pt" viewBox="0 0 1024.000000 1024.000000"
 preserveAspectRatio="xMidYMid meet">
<metadata>
Created by potrace 1.14, written by Peter Selinger 2001-2017
</metadata>
<g transform="translate(0.000000,1024.000000) scale(0.100000,-0.100000)"
fill="#000000" stroke="none">
<path d="M4125 10230 c-3 -5 -15 -10 -25 -10 -27 0 -178 -66 -230 -101 -39
-26 -179 -99 -198 -103 -48 -11 -60 -18 -55 -36 3 -10 0 -27 -6 -39 -13 -24
-2 -28 30 -11 28 15 60 -40 58 -100 -2 -91 1 -116 11 -100 5 8 10 25 10 38 0
12 5 22 10 22 6 0 10 -4 10 -8 0 -4 25 -33 56 -62 31 -30 66 -66 77 -79 12
-13 28 -29 35 -37 21 -22 14 -53 -13 -60 -26 -6 -100 2 -118 13 -6 3 -29 6
-51 6 -40 0 -41 -1 -38 -32 3 -24 -1 -33 -17 -39 -22 -8 -84 -6 -145 4 -34 6
-38 4 -33 -10 4 -9 3 -16 -1 -16 -179 -9 -240 -26 -337 -93 -81 -57 -126 -123
-60 -87 37 20 40 7 3 -21 -17 -13 -50 -41 -72 -62 -86 -80 -304 -201 -466
-257 -19 -7 -44 -16 -55 -20 -11 -4 -40 -13 -65 -20 -25 -6 -53 -16 -62 -21
-10 -5 -24 -9 -32 -9 -7 0 -19 -6 -25 -14 -7 -8 -26 -18 -42 -21 -16 -4 -27
-11 -23 -16 3 -5 13 -5 24 1 57 30 52 1 -11 -66 -51 -53 -55 -72 -8 -36 24 18
85 51 189 102 51 26 75 37 198 91 26 12 82 39 124 60 43 22 80 39 83 39 28 0
-55 -69 -150 -125 -27 -16 -63 -38 -80 -48 -16 -9 -38 -20 -47 -23 -10 -4 -18
-10 -18 -14 0 -5 -9 -12 -20 -15 -11 -3 -26 -12 -32 -18 -7 -7 -33 -28 -58
-47 -25 -19 -87 -79 -137 -133 -76 -82 -102 -118 -145 -206 -29 -58 -56 -107
-60 -109 -5 -2 -8 -10 -8 -18 0 -23 14 -9 39 39 31 60 76 113 215 253 127 126
191 176 241 188 l30 7 -35 -31 c-110 -96 -232 -212 -275 -263 -80 -94 -138
-162 -170 -200 -16 -20 -36 -37 -42 -37 -7 0 -13 -4 -13 -9 0 -12 -53 -75
-116 -136 -28 -27 -66 -72 -84 -100 -19 -27 -43 -59 -53 -70 -10 -11 -73 -99
-138 -195 -152 -222 -176 -252 -221 -279 -21 -12 -38 -26 -38 -31 0 -6 -12
-10 -26 -10 -22 0 -24 -2 -14 -15 10 -12 16 -12 34 -3 11 7 23 13 26 13 3 0
16 7 28 14 13 7 26 11 28 8 2 -2 -12 -53 -31 -113 -36 -112 -42 -154 -25 -154
12 0 13 -37 2 -44 -5 -3 -7 -19 -4 -35 3 -21 -2 -36 -17 -52 -16 -17 -21 -36
-21 -76 0 -29 -4 -53 -10 -53 -5 0 -10 -9 -10 -20 0 -12 7 -20 16 -20 11 0 14
-5 10 -16 -3 -9 -6 -18 -6 -20 0 -2 -6 -4 -14 -4 -13 0 -18 -16 -30 -89 -5
-34 13 -174 25 -186 5 -5 9 -18 9 -30 0 -12 5 -26 12 -33 13 -13 21 -92 9 -92
-5 0 3 -22 16 -50 15 -32 21 -58 17 -74 -4 -17 1 -37 15 -59 12 -20 21 -51 21
-74 0 -21 5 -44 12 -51 9 -9 7 -13 -5 -18 -21 -8 -12 -24 14 -24 10 0 19 -4
19 -10 0 -5 9 -10 20 -10 11 0 20 -4 20 -10 0 -13 -27 -13 -35 0 -11 18 -25 0
-25 -35 0 -21 -6 -35 -16 -39 -18 -7 -131 22 -140 35 -3 5 -13 9 -21 9 -19 0
-24 5 81 -88 33 -28 65 -52 71 -52 5 0 16 -9 22 -19 9 -15 9 -20 0 -24 -14 -5
-131 40 -170 66 -29 19 -37 21 -37 9 0 -5 17 -17 37 -29 140 -75 206 -121 199
-138 -2 -7 0 -29 6 -49 6 -20 9 -39 5 -42 -7 -7 -127 67 -127 79 0 4 7 7 15 7
8 0 15 5 15 11 0 9 -57 4 -69 -7 -7 -6 31 -44 44 -44 17 0 125 -104 125 -120
0 -21 -179 -190 -201 -190 -16 0 -30 51 -45 159 -15 115 -20 233 -10 249 3 5
0 12 -8 15 -8 3 -19 32 -26 64 -6 32 -15 78 -20 103 -6 25 -17 95 -26 155 -9
61 -19 133 -24 160 -7 49 -61 203 -100 288 l-20 42 4 -45 c2 -25 13 -79 25
-120 26 -94 46 -190 61 -300 6 -47 15 -107 21 -133 5 -27 9 -66 9 -87 0 -21 5
-42 10 -45 6 -3 10 -27 10 -53 0 -26 7 -87 15 -137 21 -122 37 -258 39 -324
l1 -55 -75 -26 c-103 -37 -100 -36 -145 -49 -43 -13 -55 -18 -127 -50 -26 -12
-54 -21 -61 -21 -7 0 -17 -4 -23 -8 -5 -4 -27 -14 -48 -21 -96 -33 -244 -139
-409 -293 -116 -108 -160 -166 -225 -298 -57 -117 -142 -380 -142 -440 0 -11
-4 -20 -10 -20 -5 0 -10 -12 -10 -27 0 -42 13 -19 70 127 96 241 145 323 280
463 112 118 185 168 400 273 107 53 203 100 213 105 10 5 22 7 26 4 16 -9 244
22 335 46 22 6 49 13 60 16 12 3 40 8 63 10 40 5 43 3 78 -45 20 -28 39 -52
43 -54 7 -3 42 -62 42 -72 0 -3 -7 -3 -15 0 -8 4 -15 13 -15 21 0 8 -5 11 -10
8 -8 -5 -7 -11 1 -21 19 -23 3 -56 -94 -201 -50 -76 -101 -157 -111 -180 -10
-24 -23 -40 -27 -37 -5 3 -9 -2 -9 -10 0 -9 -4 -16 -10 -16 -5 0 -10 -6 -10
-13 0 -8 -9 -22 -20 -32 -11 -10 -20 -24 -20 -32 0 -17 27 -17 33 0 4 9 6 9 6
0 1 -7 -8 -17 -19 -23 -14 -7 -20 -7 -20 0 0 20 -16 9 -58 -40 -35 -40 -40
-51 -27 -56 10 -4 32 9 63 37 27 24 65 59 86 77 21 17 34 32 30 32 -4 0 0 6
10 13 9 7 16 19 14 27 -2 8 3 15 11 15 8 0 27 12 44 28 16 15 33 27 38 27 4 0
5 7 2 17 -4 11 -3 14 5 9 7 -4 12 -2 12 3 0 6 4 11 9 11 17 0 165 163 190 209
7 11 14 11 45 0 36 -13 38 -16 32 -49 -3 -19 -63 -152 -135 -295 -159 -319
-172 -349 -243 -540 -70 -189 -71 -197 -98 -440 -9 -86 -19 -159 -40 -305 -33
-230 -35 -524 -5 -715 33 -205 37 -242 39 -335 2 -75 6 -102 23 -130 16 -29
38 -150 27 -150 -2 0 -12 9 -22 20 l-19 21 -6 -21 c-3 -12 0 -20 8 -20 11 0
28 -47 41 -110 7 -32 6 -138 -1 -192 -5 -41 -4 -58 4 -58 6 0 11 -13 11 -30 0
-20 -5 -30 -15 -30 -11 0 -15 -12 -16 -47 0 -27 -2 -75 -3 -108 -2 -33 -1 -71
2 -85 5 -24 6 -23 19 10 12 32 13 33 7 5 -3 -16 -22 -46 -42 -66 -68 -67 -108
-114 -159 -189 -28 -41 -62 -83 -75 -92 -96 -70 -125 -88 -143 -88 -13 -1 -37
-23 -65 -62 -25 -33 -50 -66 -55 -72 -102 -110 -147 -170 -142 -192 2 -14 -1
-24 -7 -24 -38 0 -406 -326 -406 -360 0 -6 17 -10 39 -10 32 0 46 7 82 43 54
52 94 85 139 117 19 13 37 27 40 30 3 3 23 18 45 35 22 16 74 62 115 103 109
107 371 267 545 333 33 12 70 29 83 37 21 14 25 13 57 -18 19 -19 35 -40 35
-47 0 -7 5 -13 10 -13 6 0 10 12 10 27 0 32 36 87 68 105 20 10 26 9 47 -15
14 -14 25 -34 25 -45 0 -10 4 -22 9 -28 5 -5 10 -27 12 -49 2 -39 -1 -43 -138
-180 -144 -144 -199 -216 -253 -326 -17 -35 -35 -72 -41 -81 -5 -10 -9 -20 -9
-23 0 -3 156 -5 348 -5 l347 0 38 59 c54 84 152 181 182 181 29 0 -50 -143
-110 -200 -31 -29 -32 -40 -2 -40 14 1 36 18 62 50 22 28 43 50 48 50 12 0 7
-33 -8 -60 -8 -14 -14 -28 -15 -32 0 -5 310 -8 688 -8 l689 0 19 23 c11 12 29
39 40 60 10 21 29 48 42 59 12 12 22 28 22 36 0 8 12 50 27 93 26 75 38 89 80
93 6 1 15 4 18 8 17 16 21 942 5 1093 -8 81 -8 102 3 113 12 11 17 11 30 -2
20 -20 27 -20 27 -1 0 20 7 19 33 -5 19 -18 20 -23 8 -41 -9 -15 -10 -24 -2
-32 8 -8 11 -7 11 5 0 8 7 21 15 28 12 10 18 10 32 -1 9 -8 19 -14 22 -14 9 0
1 -19 -12 -27 -6 -4 -8 -10 -5 -14 4 -3 14 1 23 10 23 23 44 21 38 -4 -4 -16
0 -20 17 -20 19 0 21 -4 15 -30 -5 -21 -3 -30 7 -32 54 -6 78 -18 78 -39 0
-10 7 -19 15 -19 9 0 18 -7 22 -15 3 -9 18 -22 34 -31 24 -12 28 -18 19 -34
-14 -26 -14 -26 28 -22 27 3 42 -1 52 -14 13 -15 13 -16 -7 -10 -16 5 -25 2
-32 -13 -16 -29 -14 -31 19 -31 20 0 35 -8 46 -25 9 -14 22 -25 30 -25 7 0 36
-13 64 -30 28 -16 55 -30 60 -30 6 0 10 -4 10 -8 0 -4 14 -16 30 -26 17 -9 41
-28 53 -41 22 -24 132 -85 153 -85 5 0 23 -13 39 -30 16 -16 34 -30 41 -30 7
0 26 -12 41 -26 15 -14 42 -32 60 -39 42 -18 54 -43 51 -112 l-3 -58 31 -3
c32 -3 40 -17 46 -82 1 -8 9 -22 18 -30 10 -8 19 -24 21 -35 3 -11 17 -26 32
-33 16 -8 27 -21 27 -33 0 -28 29 -69 49 -69 11 0 24 16 35 43 19 42 53 87 67
87 4 0 7 -16 6 -35 -1 -22 -7 -35 -16 -35 -11 0 -10 -5 2 -24 9 -12 19 -39 22
-60 4 -20 11 -36 16 -36 5 0 9 -7 9 -15 0 -8 4 -15 10 -15 5 0 26 -16 46 -37
35 -35 36 -38 30 -87 -3 -28 -9 -63 -12 -78 l-6 -28 1628 0 c895 0 1624 4
1619 8 -9 7 -81 41 -220 103 -90 39 -225 201 -225 268 0 26 21 31 115 25 44
-3 89 -5 101 -6 47 -1 195 84 352 201 88 67 162 127 165 134 3 9 -18 21 -62
37 -36 13 -69 28 -73 35 -5 8 -36 -3 -105 -37 -105 -51 -141 -58 -165 -30 -14
15 -13 24 3 87 10 39 18 85 18 103 1 49 64 170 125 243 17 20 54 65 81 100 28
35 59 73 70 86 11 12 47 56 80 97 33 41 70 80 82 87 12 6 19 18 16 25 -4 10 0
12 11 8 11 -4 31 9 63 45 25 28 52 51 58 51 16 0 25 -33 25 -97 0 -29 5 -53
10 -53 11 0 14 33 10 122 -1 46 3 64 22 90 19 27 22 44 20 90 -2 59 11 86 22
43 4 -14 13 -25 21 -25 20 0 19 24 -1 44 -8 9 -11 16 -6 16 10 0 25 30 19 36
-2 2 -13 -5 -25 -16 -24 -23 -31 -10 -7 14 18 18 20 37 3 34 -8 -2 -13 6 -12
18 0 14 -4 20 -13 17 -8 -3 -13 3 -13 16 0 12 7 24 15 27 17 7 21 69 5 79 -5
3 -10 26 -10 51 0 46 -16 61 -24 22 -3 -13 -9 -41 -13 -63 l-9 -39 -27 53
c-34 65 -49 180 -26 209 8 9 20 27 27 40 6 12 18 31 25 43 10 17 9 22 -6 34
-13 9 -17 20 -12 34 9 28 21 26 29 -4 3 -13 16 -30 29 -36 12 -7 25 -16 28
-21 3 -5 9 -2 13 7 4 12 0 18 -14 22 -11 3 -20 11 -20 19 0 7 -6 17 -13 21
-24 14 -28 67 -8 99 28 47 69 86 80 79 15 -9 100 -155 145 -250 21 -44 41 -87
45 -95 20 -38 119 -10 106 30 -3 11 -1 37 6 60 10 34 10 42 -4 58 -19 20 -23
67 -7 77 6 3 10 14 10 23 0 10 12 33 28 51 52 64 77 96 88 115 6 11 18 24 26
30 23 14 91 -10 125 -45 16 -16 35 -29 44 -29 8 0 25 -9 38 -21 26 -24 21 -54
-13 -81 l-21 -17 29 -30 c22 -22 39 -31 63 -31 18 0 33 4 33 9 0 10 26 9 36
-2 15 -15 31 28 26 70 -4 37 -2 43 14 43 11 0 27 -7 37 -14 16 -13 16 -14 -3
-27 -11 -8 -22 -30 -25 -49 -4 -26 -3 -30 4 -15 5 11 18 29 30 39 11 11 21 27
21 37 0 10 4 21 10 24 6 4 5 13 -2 25 -7 11 -9 23 -5 27 5 4 12 2 16 -6 6 -10
10 -9 15 4 13 35 7 42 -36 41 -40 -1 -43 1 -42 24 1 14 -5 29 -12 35 -16 13
-29 75 -15 75 6 0 8 12 5 29 -4 20 -2 30 10 34 10 4 24 23 32 42 11 27 20 35
39 35 14 0 26 6 27 13 0 6 2 17 3 22 2 6 3 13 4 18 0 4 15 0 31 -8 17 -9 28
-20 25 -25 -7 -11 19 -13 53 -4 27 8 29 24 3 24 -16 0 -31 18 -31 37 0 3 11 2
25 -1 l25 -6 -2 117 -1 118 -41 37 c-23 21 -52 43 -66 50 -14 7 -30 20 -36 28
-12 14 -11 16 19 90 5 14 13 34 18 45 4 11 11 30 14 42 7 25 60 73 81 73 10 0
14 12 14 38 l0 37 -20 -25 c-18 -24 -19 -24 -26 -5 -4 11 -14 28 -23 38 -14
17 -14 20 2 32 13 9 16 20 11 39 -5 21 -3 26 14 26 28 0 35 -37 10 -54 -14
-10 -18 -20 -14 -33 7 -17 9 -16 27 6 19 23 19 79 19 3237 l0 3214 -2836 0
c-1998 0 -2849 -3 -2878 -11 -22 -6 -58 -15 -78 -20 -104 -25 -126 -32 -168
-52 -95 -44 -161 -112 -165 -170 -2 -18 -5 -39 -8 -47 -18 -54 -27 -104 -27
-146 -1 -27 -7 -60 -14 -73 l-14 -25 -6 32 c-8 32 8 135 27 186 6 17 10 42 9
58 -2 29 17 75 41 100 7 7 21 25 31 41 10 15 24 27 31 27 6 0 20 9 30 20 27
30 -2 26 -45 -5 -19 -14 -41 -23 -50 -20 -23 7 -102 -78 -129 -139 -34 -74
-43 -99 -52 -141 -28 -134 -27 -133 -48 -43 -14 61 -14 68 4 68 20 0 48 45 42
67 -4 16 -6 15 -12 -4 -4 -13 -15 -23 -26 -23 -22 0 -23 3 -7 33 23 46 28 57
28 70 0 7 16 32 35 54 19 23 35 45 35 51 0 10 94 64 107 60 7 -1 22 4 98 38
l30 14 -47 0 c-26 0 -50 -4 -53 -10z m375 -86 c0 -3 -46 -54 -102 -113 -159
-164 -157 -161 -217 -272 -33 -62 -53 -73 -70 -40 -19 34 14 187 51 243 10 14
18 30 18 34 0 13 53 64 66 64 7 0 14 4 16 8 2 4 41 22 88 39 107 40 150 50
150 37z m-559 -56 c-23 -24 -56 -72 -73 -108 -32 -66 -36 -104 -19 -165 28
-95 19 -118 -26 -67 -57 63 -83 115 -83 164 0 45 3 51 53 98 46 43 81 69 163
116 33 20 28 6 -15 -38z m92 -187 c-12 -8 -33 -103 -33 -146 0 -19 -4 -37 -10
-40 -22 -14 0 158 23 181 4 4 7 17 7 29 0 33 15 41 18 10 2 -16 0 -31 -5 -34z
m296 -78 c-8 -10 -17 -20 -21 -23 -12 -9 -58 -81 -58 -90 0 -5 -9 -14 -21 -21
-19 -10 -20 -9 -14 13 4 12 17 34 30 48 12 14 35 40 50 58 29 33 58 46 34 15z
m-389 -119 c0 -8 -4 -14 -9 -14 -6 0 -9 9 -8 19 1 22 17 18 17 -5z m-118 -190
c17 -11 -23 -23 -43 -13 -9 4 -25 5 -37 2 -16 -4 -22 -1 -22 11 0 13 9 15 45
12 25 -3 50 -8 57 -12z m-847 -723 c-6 -5 -35 -23 -65 -39 -73 -38 -133 -72
-145 -82 -35 -27 -217 -122 -223 -115 -10 10 41 55 102 90 34 20 68 40 76 45
14 8 121 57 180 82 14 6 32 14 40 19 21 11 46 11 35 0z m1448 -208 c22 -103
28 -131 53 -213 4 -14 20 -49 36 -78 15 -30 28 -60 28 -68 0 -8 5 -14 10 -14
6 0 10 5 10 12 0 6 2 9 5 6 3 -3 1 -16 -4 -29 -7 -20 -3 -32 20 -64 15 -22 36
-52 46 -67 23 -37 46 -38 32 -2 -5 15 -8 29 -5 31 6 6 46 -16 46 -26 0 -11 29
-41 153 -155 90 -83 107 -104 103 -122 -3 -12 -2 -24 4 -26 11 -4 13 -62 4
-180 -4 -61 -3 -88 5 -88 6 0 11 17 11 39 0 22 5 43 10 46 6 3 10 16 10 28 0
24 31 49 46 39 6 -4 22 -28 37 -54 25 -43 26 -48 12 -75 -22 -42 -19 -100 5
-115 34 -21 24 -44 -17 -39 -14 2 -28 -60 -19 -91 3 -13 25 -43 48 -67 24 -24
55 -61 69 -82 14 -21 60 -77 103 -124 57 -62 84 -85 102 -85 14 0 52 -21 88
-48 35 -27 85 -59 112 -71 27 -12 61 -29 76 -37 14 -8 34 -14 43 -14 10 0 27
-10 39 -22 20 -22 33 -29 101 -58 69 -29 81 -35 105 -51 14 -9 36 -20 50 -24
27 -8 90 -63 90 -79 0 -5 -8 -18 -17 -28 -11 -12 -13 -22 -7 -28 7 -7 15 -1
24 17 8 16 15 30 16 31 3 5 77 -30 84 -38 6 -8 48 -31 113 -60 26 -13 47 -26
47 -31 0 -12 -14 -11 -44 3 -21 9 -34 8 -68 -8 -57 -25 -78 -54 -40 -54 23 0
82 -28 82 -39 0 -5 15 -16 33 -25 20 -10 26 -16 14 -16 -10 0 -15 -5 -12 -10
4 -6 2 -17 -5 -25 -6 -7 -7 -16 -2 -19 4 -2 17 7 28 22 10 15 29 37 42 50 12
13 22 27 22 32 0 6 5 10 10 10 6 0 10 -9 10 -20 0 -11 -4 -20 -10 -20 -5 0
-10 -7 -10 -15 0 -9 -6 -18 -14 -21 -8 -3 -16 -19 -20 -35 -5 -24 -10 -29 -25
-24 -11 3 -22 1 -26 -4 -4 -7 1 -8 11 -4 15 6 15 2 -4 -24 -11 -16 -28 -36
-37 -43 -8 -7 -15 -18 -15 -26 0 -7 -16 -29 -35 -48 -19 -20 -35 -40 -35 -46
0 -5 -9 -10 -21 -10 -15 0 -19 5 -15 15 3 10 -1 18 -11 22 -9 4 -19 1 -21 -5
-2 -7 -15 -12 -29 -12 -22 0 -24 -3 -18 -30 6 -26 4 -30 -14 -30 -11 0 -23 5
-27 11 -4 8 -26 9 -65 5 -58 -6 -59 -5 -59 19 0 16 -6 25 -16 25 -14 0 -14 -3
-4 -15 10 -13 9 -15 -8 -15 -11 0 -27 -7 -36 -15 -8 -8 -19 -15 -24 -15 -18 0
-21 -29 -5 -38 19 -11 11 -42 -10 -42 -21 0 -46 32 -29 37 19 7 14 23 -8 23
-13 0 -20 -7 -20 -19 0 -10 -7 -24 -15 -31 -8 -7 -15 -17 -15 -23 0 -14 -41
-57 -54 -57 -6 0 -17 9 -24 20 -12 20 -52 28 -52 11 0 -5 -3 -18 -6 -28 -4
-12 -3 -14 3 -5 7 10 17 9 49 -3 21 -8 28 -13 14 -11 -18 4 -29 -1 -38 -14 -7
-11 -19 -20 -27 -20 -8 0 -15 -4 -15 -10 0 -5 5 -10 10 -10 18 0 11 -29 -10
-40 -18 -10 -20 -8 -20 19 0 16 5 33 10 36 12 8 13 25 1 25 -5 0 -16 -16 -26
-36 -13 -27 -14 -38 -5 -49 6 -8 9 -19 5 -26 -6 -8 -9 -8 -15 1 -12 20 -29
-21 -19 -45 6 -17 8 -17 8 -2 1 9 8 17 16 17 10 0 15 -11 15 -35 0 -19 -3 -35
-8 -35 -4 0 -18 -24 -31 -52 -12 -29 -32 -73 -43 -97 -26 -58 -33 -141 -13
-141 18 0 20 -31 4 -47 -7 -7 -9 -19 -5 -29 4 -9 9 -14 13 -11 7 8 33 -11 33
-25 0 -5 -8 -8 -17 -6 -10 1 -19 -1 -20 -5 -6 -17 -2 -27 12 -27 9 0 15 -9 15
-23 0 -12 8 -33 17 -46 26 -38 25 -197 -2 -236 -34 -51 -75 -138 -68 -148 3
-5 -7 -6 -26 -2 -42 9 -71 -16 -71 -61 0 -41 23 -50 75 -28 36 15 37 14 30 -3
-4 -10 -8 -39 -10 -65 -2 -41 0 -48 19 -54 44 -14 42 -44 -4 -44 -27 0 -40
-15 -40 -45 0 -8 18 -24 40 -36 47 -26 52 -44 11 -36 -25 5 -28 4 -23 -19 2
-13 8 -27 13 -30 5 -3 9 -16 9 -30 0 -13 5 -24 11 -24 6 0 8 8 4 19 -8 26 22
36 35 11 6 -11 17 -20 25 -20 7 0 21 -14 29 -32 20 -38 20 -38 1 -38 -8 0 -15
3 -15 8 0 4 -12 12 -26 19 -26 12 -26 11 -22 -19 l5 -32 -18 22 c-21 27 -29
28 -29 2 0 -22 -10 -26 -27 -9 -7 7 -15 6 -26 -5 -9 -9 -22 -16 -30 -16 -9 0
-27 -14 -41 -31 -25 -29 -26 -36 -26 -149 0 -105 2 -119 18 -122 9 -2 28 2 42
9 14 7 35 13 47 13 12 0 23 5 25 12 2 6 14 -2 26 -19 l22 -31 -45 -53 c-50
-59 -54 -82 -25 -135 22 -38 19 -60 -3 -31 -10 15 -15 10 -36 -38 -27 -60 -44
-71 -87 -55 -25 10 -31 8 -45 -9 -20 -24 -29 -27 -29 -7 0 22 -29 27 -61 10
-39 -19 -46 -40 -24 -64 12 -13 14 -20 5 -20 -8 0 -10 -8 -6 -25 8 -30 1 -31
-58 -6 -67 29 -111 35 -146 20 -16 -8 -30 -20 -30 -26 0 -7 -4 -13 -10 -13 -5
0 -10 -10 -10 -23 0 -12 -7 -33 -16 -46 -16 -22 -15 -24 12 -47 29 -23 84 -33
84 -14 0 6 14 10 30 10 17 0 42 7 55 16 23 15 29 15 82 -2 32 -10 74 -28 93
-40 49 -31 124 -105 113 -113 -4 -3 -23 -31 -42 -61 -50 -82 -78 -208 -50
-226 6 -3 9 -19 5 -34 -6 -35 6 -46 73 -66 59 -17 108 -8 149 29 25 23 27 39
11 66 -8 12 -9 23 -2 36 7 12 7 30 1 53 -8 27 -6 38 6 50 12 13 18 14 28 4 7
-7 23 -12 36 -12 15 0 22 -5 19 -13 -2 -6 -14 -11 -26 -10 -11 2 -21 -1 -21
-6 0 -15 85 -111 99 -111 5 0 16 -11 25 -24 8 -14 25 -27 36 -31 28 -9 25 -27
-4 -19 -26 6 -55 -1 -164 -41 -80 -30 -152 -31 -257 -4 -92 23 -122 17 -391
-79 -84 -31 -149 -64 -220 -113 -56 -38 -88 -42 -92 -11 -3 18 -8 22 -20 16
-9 -4 -30 -9 -47 -12 -59 -9 -108 -62 -116 -122 -3 -24 28 -90 43 -90 4 0 15
13 24 30 23 38 36 42 80 24 26 -11 39 -12 49 -4 28 23 85 31 225 31 92 -1 165
-6 200 -15 30 -8 93 -20 140 -26 47 -6 126 -19 175 -27 58 -10 140 -15 231
-14 77 1 152 -1 167 -4 39 -10 43 -34 7 -47 -17 -5 -30 -16 -30 -24 0 -15 -62
-47 -122 -63 -21 -5 -38 -6 -38 -1 0 4 -9 6 -20 3 -11 -3 -20 -11 -20 -19 0
-22 -20 -27 -40 -9 -19 17 -20 16 -30 -9 -5 -15 -10 -33 -10 -40 0 -7 -9 -21
-20 -31 -11 -10 -20 -25 -20 -33 0 -10 -9 -7 -34 12 -26 20 -42 24 -64 20 -25
-5 -33 -2 -47 20 -10 14 -24 26 -31 26 -8 0 -23 5 -34 12 -31 20 -36 1 -7 -26
34 -31 34 -52 2 -60 -29 -7 -34 -26 -6 -26 10 0 24 -7 31 -15 7 -8 27 -16 44
-16 57 -3 -52 -17 -133 -18 -61 -1 -72 -3 -62 -15 6 -7 9 -21 5 -30 -3 -9 -2
-16 4 -16 5 0 9 -15 7 -32 -4 -71 32 -98 135 -98 51 0 65 -7 50 -25 -7 -8 -2
-10 19 -7 19 3 44 -5 75 -23 33 -19 64 -28 113 -31 37 -3 70 -10 71 -15 2 -5
14 -9 27 -9 12 0 28 -7 35 -15 15 -18 37 -20 42 -4 3 8 9 7 19 -4 15 -14 72
-25 154 -30 35 -2 40 -5 43 -28 2 -20 -5 -33 -28 -50 -17 -13 -44 -35 -60 -47
-17 -13 -30 -32 -30 -43 0 -12 -7 -19 -20 -19 -11 0 -20 -4 -20 -10 0 -5 10
-10 21 -10 24 0 71 -48 62 -63 -5 -8 -55 -6 -147 6 -17 2 -20 -5 -21 -42 -1
-25 -7 -47 -13 -49 -7 -2 -12 -11 -12 -21 0 -9 -7 -26 -15 -37 -8 -10 -15 -24
-15 -31 0 -7 -14 -33 -32 -59 -29 -43 -32 -45 -44 -29 -11 15 -17 16 -43 5
-16 -6 -34 -10 -38 -7 -5 3 -15 2 -23 -4 -10 -6 0 -9 33 -9 49 0 54 -6 37 -45
-5 -11 -9 -14 -9 -6 -1 9 -5 10 -13 3 -7 -5 -25 -8 -40 -6 -25 2 -28 -1 -28
-25 0 -24 -5 -30 -30 -35 -17 -3 -42 0 -58 6 -15 6 -36 10 -46 9 -29 -4 -234
29 -291 46 -50 16 -122 49 -205 96 -25 14 -72 40 -105 58 -33 17 -81 47 -108
65 -26 19 -49 34 -52 34 -8 0 -141 94 -200 141 -67 54 -134 99 -146 99 -5 0
-9 6 -9 14 0 7 -17 25 -37 39 -21 14 -54 41 -74 59 -20 18 -56 49 -79 68 -68
56 -152 133 -180 163 -14 16 -82 88 -152 160 -294 305 -427 547 -489 889 -16
90 -29 170 -39 238 -29 207 -51 333 -60 350 -6 11 -17 16 -28 13 -46 -12 -293
136 -335 201 -9 14 -41 53 -71 86 -58 65 -123 174 -133 221 -3 16 -10 32 -14
35 -5 3 -9 21 -9 40 0 19 -4 33 -9 30 -5 -3 -11 11 -14 32 -3 20 -11 69 -18
107 -14 85 -7 389 11 457 11 44 14 47 34 36 11 -6 32 -13 45 -14 36 -4 44 -25
19 -51 -29 -30 -48 -110 -55 -224 -6 -108 4 -154 46 -209 15 -19 38 -55 51
-80 14 -25 33 -55 45 -68 19 -22 19 -24 3 -36 -25 -18 -22 -24 7 -18 21 3 36
-7 83 -56 31 -32 73 -78 92 -101 55 -65 89 -47 51 27 -13 25 -17 43 -11 47 21
13 8 42 -39 90 -27 28 -47 53 -45 57 2 4 0 9 -6 13 -5 3 -10 19 -10 35 0 16
-4 32 -10 35 -5 3 -10 18 -10 32 0 17 -4 23 -14 20 -22 -9 -38 14 -22 32 17
21 46 96 46 121 0 25 12 26 32 3 23 -28 128 -330 128 -369 0 -9 9 -33 19 -53
11 -20 25 -57 32 -83 8 -27 17 -48 21 -48 9 0 10 -7 -1 107 -5 51 -18 118 -29
150 -52 156 -90 299 -103 383 -5 30 -13 87 -19 125 -34 229 -34 483 1 816 5
53 9 100 7 105 -7 26 16 201 37 279 13 50 29 129 35 177 12 101 15 109 49 163
70 109 101 167 96 175 -3 5 1 28 9 52 10 28 12 44 5 49 -7 4 -8 18 -2 40 5 19
8 50 7 69 -2 19 4 47 13 63 15 30 19 96 8 145 -3 17 0 40 10 58 20 38 20 84 0
84 -8 0 -15 4 -15 8 0 30 45 203 76 292 21 60 37 127 38 156 1 34 12 72 32
115 91 187 168 340 197 390 41 71 154 234 173 249 8 7 14 23 14 35 0 13 7 25
15 29 16 6 16 26 0 38 -16 12 -25 9 -25 -7 0 -8 -10 -20 -22 -26 -20 -11 -21
-10 -11 3 7 8 9 19 5 23 -4 5 -1 5 6 1 8 -5 12 0 12 13 0 12 3 21 8 21 4 0 13
14 20 30 15 33 56 45 45 13 -5 -15 -2 -14 14 3 11 11 24 30 27 42 4 12 12 22
17 22 5 0 9 5 9 10 0 7 -6 7 -20 0 -25 -14 -26 -5 -1 21 11 12 24 18 30 14 6
-3 15 5 20 19 6 13 20 28 33 32 13 4 27 12 33 19 18 21 115 85 129 85 7 0 24
8 37 18 35 27 85 51 153 73 33 11 64 23 70 28 7 6 25 12 41 15 15 3 31 9 34
14 3 5 45 12 94 15 48 3 95 10 104 16 23 12 29 7 36 -26z m107 -52 c0 -6 -5
-13 -11 -17 -6 -3 -8 -16 -5 -29 4 -15 1 -25 -9 -29 -12 -4 -15 3 -15 33 0 35
8 48 33 50 4 1 7 -3 7 -8z m34 -99 c4 -7 9 -20 11 -29 2 -10 13 -52 24 -93 31
-113 33 -129 15 -85 -9 22 -24 58 -34 80 -9 22 -21 58 -25 80 -4 22 -11 43
-16 46 -5 3 -6 21 -2 40 l7 34 6 -31 c4 -17 10 -36 14 -42z m-47 -49 c-3 -10
-5 -4 -5 12 0 17 2 24 5 18 2 -7 2 -21 0 -30z m-2093 -26 c-2 -7 -14 -19 -27
-26 -21 -13 -21 -12 2 13 27 29 33 32 25 13z m2116 -15 c0 -10 5 -23 11 -29 6
-6 9 -21 7 -34 -4 -24 -5 -24 -16 4 -20 47 -25 77 -13 77 6 0 11 -8 11 -18z
m-2060 -68 c0 -3 -17 -22 -38 -42 -20 -20 -66 -71 -102 -112 -36 -41 -67 -77
-70 -80 -3 -3 -43 -52 -90 -110 -46 -58 -100 -122 -120 -144 -40 -44 -172
-146 -189 -146 -6 0 -11 -4 -11 -10 0 -5 -4 -10 -10 -10 -25 0 -5 29 53 75 64
51 163 147 207 200 14 17 51 62 82 102 46 57 174 190 260 270 14 13 28 17 28
7z m2120 -99 c0 -8 -4 -15 -10 -15 -5 0 -10 7 -10 15 0 8 5 15 10 15 6 0 10
-7 10 -15z m351 -242 c-6 -12 -5 -26 5 -45 9 -17 10 -28 4 -28 -12 0 -30 42
-30 71 0 10 7 19 15 19 12 0 14 -4 6 -17z m109 -155 c0 -16 -4 -28 -10 -28 -5
0 -10 5 -10 11 0 5 -4 7 -10 4 -13 -8 -13 21 1 47 9 17 13 18 20 7 5 -8 9 -26
9 -41z m-2830 -104 c0 -4 -29 -35 -65 -71 -36 -35 -65 -66 -65 -69 0 -3 -12
-16 -27 -29 l-28 -24 28 -1 c15 0 27 -4 27 -10 0 -5 -4 -10 -10 -10 -5 0 -10
-9 -10 -19 0 -11 -5 -23 -10 -26 -6 -3 -19 -23 -29 -43 -67 -128 -80 -159 -75
-174 3 -10 0 -18 -6 -18 -8 0 -10 -9 -6 -25 5 -18 1 -27 -13 -34 -10 -6 -23
-25 -27 -43 -14 -52 -85 -175 -136 -236 -32 -39 -44 -60 -37 -68 6 -8 5 -14
-6 -18 -8 -3 -15 -15 -15 -26 0 -23 -4 -24 -31 -10 -23 13 -24 7 -3 -26 13
-19 14 -28 5 -37 -11 -11 -16 -47 -5 -47 11 0 43 45 44 60 1 29 100 79 100 51
0 -12 7 -8 46 28 8 7 18 10 22 7 3 -4 0 -12 -8 -17 -11 -8 -12 -12 -2 -16 16
-6 15 -32 -2 -65 -11 -21 -12 -28 -3 -29 9 0 9 -2 0 -6 -10 -3 -10 -10 -2 -25
6 -11 7 -27 3 -36 -4 -9 -8 -21 -8 -27 -1 -5 -12 -12 -26 -13 -14 -2 -29 -7
-35 -12 -5 -4 -30 -11 -55 -15 -25 -4 -61 -13 -81 -20 -20 -7 -40 -10 -46 -7
-11 8 -31 109 -32 166 0 21 -6 45 -12 52 -20 25 -11 265 16 434 5 32 4 33 -5
10 -6 -14 -18 -29 -26 -33 -8 -5 -11 -13 -8 -19 4 -6 1 -14 -6 -18 -7 -4 -14
-29 -17 -56 -2 -27 -10 -62 -16 -79 -6 -16 -11 -45 -12 -65 0 -30 -4 -35 -25
-38 -14 -1 -32 2 -40 7 -12 8 -12 13 4 30 10 11 23 18 27 15 12 -7 11 10 -1
22 -11 11 11 77 30 89 6 4 9 21 6 40 -6 34 14 98 34 110 6 4 8 15 5 25 -3 10
1 24 8 32 8 8 18 39 21 69 17 131 26 155 68 179 25 14 43 19 51 12 19 -14 49
-23 42 -12 -3 6 2 10 12 10 11 0 23 4 29 9 10 9 165 91 304 161 47 23 92 46
100 51 18 10 40 11 40 3z m2965 -164 c18 -19 17 -20 -3 -20 -12 0 -26 9 -32
20 -8 16 -8 20 3 20 8 0 22 -9 32 -20z m-3642 -161 c-3 -11 -12 -23 -20 -26
-8 -3 -11 -13 -8 -24 4 -11 2 -19 -5 -19 -17 0 -23 28 -8 44 7 9 19 22 26 31
17 20 21 19 15 -6z m3621 -3 c26 -24 34 -50 17 -61 -5 -3 -18 6 -29 20 -11 14
-25 25 -31 25 -15 0 -14 27 2 33 6 3 13 6 14 6 1 1 13 -10 27 -23z m-3671
-113 c3 -16 3 -30 1 -33 -7 -7 -24 23 -24 43 0 27 17 20 23 -10z m37 17 c0 -5
-2 -10 -4 -10 -3 0 -8 5 -11 10 -3 6 -1 10 4 10 6 0 11 -4 11 -10z m-63 -82
c-3 -7 -5 -2 -5 12 0 14 2 19 5 13 2 -7 2 -19 0 -25z m3991 -190 c-2 -14 -10
-23 -21 -23 -10 0 -22 -7 -28 -15 -8 -13 -11 -12 -24 4 -18 24 -11 36 21 36
13 0 24 5 24 10 0 6 7 10 16 10 10 0 14 -7 12 -22z m1650 -171 c3 -24 0 -27
-25 -27 -44 0 -59 20 -31 42 31 24 52 18 56 -15z m-5632 -116 c-8 -13 -36 -15
-36 -3 0 4 5 13 12 20 14 14 34 0 24 -17z m1494 -131 c0 -5 -5 -10 -11 -10 -5
0 -7 5 -4 10 3 6 8 10 11 10 2 0 4 -4 4 -10z m-1280 -161 c0 -11 -4 -18 -10
-14 -5 3 -7 12 -3 20 7 21 13 19 13 -6z m40 -44 c0 -8 -9 -15 -20 -15 -20 0
-26 11 -13 23 12 13 33 7 33 -8z m4710 -36 c0 -5 -7 -9 -15 -9 -15 0 -20 12
-9 23 8 8 24 -1 24 -14z m170 -83 c0 -3 -4 -8 -10 -11 -5 -3 -10 -1 -10 4 0 6
5 11 10 11 6 0 10 -2 10 -4z m860 -199 c0 -16 -28 -57 -39 -57 -15 0 -22 33
-11 44 8 8 11 7 8 -3 -2 -7 3 -16 10 -18 7 -3 12 4 12 16 0 12 -7 24 -15 27
-8 4 -12 10 -9 15 7 12 44 -8 44 -24z m-1581 -131 c9 -11 8 -15 -5 -20 -23 -9
-24 -8 -24 14 0 23 13 26 29 6z m161 -15 c0 -11 -53 -31 -83 -31 -34 0 -33
-23 1 -28 36 -5 25 -22 -14 -22 -19 0 -42 7 -50 15 -14 13 -14 15 -1 15 10 0
13 7 10 20 -4 17 0 20 25 20 16 0 42 6 57 14 26 13 55 12 55 -3z m40 -16 c0
-8 -4 -15 -10 -15 -5 0 -10 7 -10 15 0 8 5 15 10 15 6 0 10 -7 10 -15z m-30
-65 c0 -5 -4 -10 -9 -10 -6 0 -13 5 -16 10 -3 6 1 10 9 10 9 0 16 -4 16 -10z
m-4407 -351 c-11 -12 -29 -19 -39 -17 -16 3 -14 6 11 20 42 22 53 21 28 -3z
m-97 -54 c-11 -8 -27 -15 -35 -15 -11 0 -10 4 5 15 10 8 26 14 34 14 11 0 10
-3 -4 -14z m3928 -140 c-4 -8 -8 -15 -10 -15 -2 0 -4 7 -4 15 0 8 4 15 10 15
5 0 7 -7 4 -15z m-3574 -41 c0 -9 -5 -35 -11 -58 -13 -49 -24 -94 -39 -161
-14 -58 -39 -119 -47 -111 -3 2 1 69 8 147 12 139 13 143 43 171 36 32 46 34
46 12z m-560 -99 c0 -8 -4 -15 -10 -15 -5 0 -9 -5 -7 -12 1 -6 -14 -15 -33
-18 -19 -3 -45 -12 -57 -18 -12 -7 -32 -12 -45 -12 -13 0 -28 -4 -34 -10 -5
-5 -32 -13 -59 -16 -28 -4 -60 -13 -72 -20 -26 -16 -43 -18 -43 -4 0 14 133
75 230 105 47 15 90 28 95 30 23 8 35 4 35 -10z m4220 -131 c0 -8 -5 -12 -10
-9 -6 4 -8 11 -5 16 9 14 15 11 15 -7z m0 -202 c0 -15 -25 -62 -32 -62 -10 0
-10 54 -1 63 9 10 33 9 33 -1z m-4100 -202 c0 -5 -5 -10 -11 -10 -5 0 -7 5 -4
10 3 6 8 10 11 10 2 0 4 -4 4 -10z m-58 -85 c-12 -22 -27 -2 -18 22 5 12 10
13 17 6 7 -7 8 -17 1 -28z m-72 -90 c-7 -9 -15 -13 -18 -10 -3 2 1 11 8 20 7
9 15 13 18 10 3 -2 -1 -11 -8 -20z m650 -62 c1 -85 -30 -350 -50 -433 -5 -19
-14 -64 -21 -100 -6 -36 -23 -108 -36 -160 -14 -52 -29 -111 -33 -130 -4 -19
-13 -57 -20 -85 -11 -49 -19 -82 -38 -156 -18 -72 -91 -204 -139 -254 -59 -61
-110 -99 -117 -87 -3 5 -1 36 4 68 5 32 14 109 20 169 19 193 57 424 91 550 6
22 13 52 16 68 3 15 9 30 14 33 5 3 9 12 9 21 0 23 96 216 148 298 148 232
152 238 152 198z m3605 -153 c3 -5 2 -10 -4 -10 -5 0 -13 5 -16 10 -3 6 -2 10
4 10 5 0 13 -4 16 -10z m-3065 -116 c0 -8 -5 -12 -10 -9 -6 4 -8 11 -5 16 9
14 15 11 15 -7z m3012 -28 c3 -31 2 -33 -14 -25 -21 11 -23 24 -5 44 6 8 13
14 13 15 1 0 4 -15 6 -34z m-2939 -26 c-7 -8 -22 24 -16 34 4 5 10 1 13 -10 4
-10 6 -21 3 -24z m7547 -296 c0 -8 -5 -12 -10 -9 -6 4 -8 11 -5 16 9 14 15 11
15 -7z m-8576 -81 c-3 -27 -9 -82 -14 -123 -5 -41 -14 -124 -20 -185 -12 -129
-24 -229 -44 -380 -15 -115 -12 -316 4 -344 8 -14 9 -14 10 2 0 9 5 17 10 17
6 0 10 21 10 48 0 26 5 87 11 137 10 81 14 92 43 117 50 46 66 52 66 28 0 -11
-4 -28 -9 -38 -15 -30 -28 -64 -60 -167 -31 -98 -37 -114 -59 -165 -27 -62
-35 -126 -36 -314 -1 -150 -4 -200 -13 -203 -9 -3 -13 5 -13 24 0 19 -3 24 -9
15 -6 -10 -10 -9 -14 7 -7 30 -24 26 -30 -6 -3 -16 -10 -44 -15 -63 l-8 -35
-24 50 c-30 64 -42 126 -72 380 -16 139 -16 243 0 370 28 210 41 275 76 378
25 74 40 108 103 247 38 82 49 112 88 238 3 6 9 12 14 12 7 0 9 -19 5 -47z
m-153 -16 c-8 -8 -11 -5 -11 9 0 27 14 41 18 19 2 -9 -1 -22 -7 -28z m-11 -37
c0 -5 -5 -10 -11 -10 -5 0 -7 5 -4 10 3 6 8 10 11 10 2 0 4 -4 4 -10z m7799
-24 c18 -21 -13 -43 -36 -25 -10 7 -20 14 -22 16 -1 1 0 6 4 12 9 15 40 14 54
-3z m-489 -26 c0 -5 -4 -10 -10 -10 -5 0 -10 5 -10 10 0 6 5 10 10 10 6 0 10
-4 10 -10z m1440 -380 c0 -5 -4 -10 -10 -10 -5 0 -10 5 -10 10 0 6 5 10 10 10
6 0 10 -4 10 -10z m-4843 -6 c-3 -3 -12 -4 -19 -1 -8 3 -5 6 6 6 11 1 17 -2
13 -5z m3037 0 c38 -14 -5 -94 -50 -94 -20 0 -18 59 3 82 18 20 23 21 47 12z
m-2124 -123 c0 -6 -4 -13 -10 -16 -5 -3 -10 -1 -10 4 0 6 -5 11 -11 11 -6 0
-9 -15 -7 -37 3 -33 0 -37 -27 -45 -50 -15 -99 -17 -112 -6 -9 7 -13 7 -13 -1
0 -6 -7 -11 -15 -11 -25 0 -16 24 16 43 36 20 60 22 77 5 6 -6 15 -8 19 -4 4
4 1 11 -7 16 -17 10 -17 10 30 32 40 19 70 23 70 9z m-466 -127 c20 -7 21 -20
3 -27 -19 -7 -41 8 -33 22 8 13 9 13 30 5z m294 -16 c-4 -29 -25 -35 -22 -6 3
29 2 28 15 28 6 0 9 -10 7 -22z m-158 2 c12 -7 12 -12 2 -22 -16 -16 -15 -31
2 -25 22 9 26 -3 10 -27 -8 -13 -11 -26 -7 -30 5 -4 -6 -4 -22 -1 -17 4 -35
14 -41 21 -6 8 -18 14 -26 14 -19 0 -58 29 -39 30 7 0 26 11 43 25 31 26 53
31 78 15z m90 -30 c0 -5 -4 -10 -10 -10 -5 0 -10 5 -10 10 0 6 5 10 10 10 6 0
10 -4 10 -10z m176 -16 c-3 -9 -6 -21 -6 -27 0 -6 -7 -4 -16 5 -18 18 -11 38
13 38 10 0 13 -6 9 -16z m-741 -35 c-4 -13 -2 -19 9 -19 9 0 16 -7 16 -15 0
-20 -6 -19 -29 4 -16 16 -19 30 -12 59 1 2 6 0 11 -3 6 -4 8 -15 5 -26z m4505
12 c0 -17 -18 -21 -24 -6 -3 9 0 15 9 15 8 0 15 -4 15 -9z m-3939 -33 c1 -7 1
-19 0 -25 -2 -17 4 -16 32 1 12 7 37 16 55 20 31 5 32 5 32 -30 0 -38 -18 -52
-47 -35 -10 6 -12 11 -5 11 17 0 15 20 -3 20 -8 0 -15 -5 -15 -11 0 -16 -69
-4 -88 15 -13 12 -13 18 -2 30 15 19 40 21 41 4z m3016 -100 c-3 -8 -6 -5 -6
6 -1 11 2 17 5 13 3 -3 4 -12 1 -19z m343 -26 c0 -15 -2 -15 -10 -2 -13 20
-13 33 0 25 6 -3 10 -14 10 -23z m20 -38 c0 -8 -4 -12 -10 -9 -5 3 -10 10 -10
16 0 5 5 9 10 9 6 0 10 -7 10 -16z m503 -54 c4 -15 0 -20 -14 -20 -10 0 -19 5
-19 11 0 5 -4 7 -10 4 -11 -7 -14 28 -4 38 11 10 41 -11 47 -33z m44 8 c-3 -8
-6 -5 -6 6 -1 11 2 17 5 13 3 -3 4 -12 1 -19z m-897 -37 c-5 -9 -8 -25 -7 -35
3 -29 -22 -31 -32 -3 -6 14 -14 28 -19 31 -6 3 -8 14 -5 25 4 16 9 17 38 8 27
-8 32 -13 25 -26z m390 -1 c0 -11 -4 -20 -10 -20 -5 0 -10 9 -10 20 0 11 5 20
10 20 6 0 10 -9 10 -20z m-1495 -111 c-10 -15 -25 -10 -19 6 4 8 10 12 15 9 5
-3 7 -10 4 -15z m-2407 -81 c56 -1 82 -4 79 -12 -8 -23 -492 -32 -564 -10 -13
3 -23 13 -23 21 0 13 30 14 213 8 116 -3 249 -7 295 -7z m142 -12 c0 -11 -19
-15 -25 -6 -3 5 1 10 9 10 9 0 16 -2 16 -4z m2160 -49 c0 -29 -62 -103 -78
-93 -15 9 -4 34 33 79 35 43 45 46 45 14z m-1050 -207 c0 -5 -4 -10 -10 -10
-5 0 -10 5 -10 10 0 6 5 10 10 10 6 0 10 -4 10 -10z m-34 -37 c-10 -10 -19 5
-10 18 6 11 8 11 12 0 2 -7 1 -15 -2 -18z m-5256 -31 c-5 -20 -5 -30 1 -27 5
4 9 15 9 26 0 12 5 19 12 17 19 -7 26 -50 18 -104 -9 -55 -3 -219 10 -279 12
-52 5 -57 -10 -8 -19 62 -53 147 -65 163 -36 48 -48 140 -28 210 6 19 11 29
12 21 1 -11 5 -11 24 2 12 8 23 14 24 13 2 -1 -1 -17 -7 -34z m3824 -131 c7
-11 -22 -23 -35 -15 -5 3 -7 10 -4 15 8 12 32 12 39 0z m3701 -77 c21 -44 32
-114 18 -114 -6 0 -25 14 -42 31 l-33 31 -22 -21 c-51 -48 -97 1 -68 72 11 26
16 28 57 26 24 -2 47 0 51 4 14 13 22 7 39 -29z m-7631 -97 c5 -27 4 -37 -3
-32 -6 3 -11 22 -11 42 0 44 5 41 14 -10z m4462 -329 c-10 -70 -22 -92 -31
-55 -5 17 -3 33 4 40 6 6 11 24 11 39 0 15 5 28 11 28 8 0 9 -16 5 -52z
m-4446 -38 c0 -5 -9 -10 -19 -10 -11 0 -23 5 -26 10 -4 6 5 10 19 10 14 0 26
-4 26 -10z m4365 -57 c-7 -17 -8 -17 -15 2 -9 24 -2 41 12 27 6 -6 7 -19 3
-29z m82 -81 c-9 -11 -14 -9 -28 9 -15 20 -16 34 -10 79 1 3 12 -13 25 -35 19
-30 22 -43 13 -53z m-3547 11 c7 -32 17 -66 22 -75 4 -9 5 -24 2 -33 -8 -20
-79 -68 -122 -83 -18 -6 -46 -20 -61 -32 -40 -28 -51 -25 -51 11 0 17 -4 39
-10 49 -5 10 -12 43 -16 73 l-7 55 44 20 c30 14 48 17 56 11 8 -7 12 -4 15 12
2 17 15 27 53 40 27 9 52 16 56 14 3 -2 12 -30 19 -62z m-930 27 c0 -5 -4 -10
-10 -10 -5 0 -10 5 -10 10 0 6 5 10 10 10 6 0 10 -4 10 -10z m4414 -47 c-6 -9
-17 -18 -25 -20 -9 -3 -8 -1 3 6 10 7 14 19 11 33 -5 19 -3 21 8 10 10 -9 11
-17 3 -29z m-4418 0 c-10 -10 -19 5 -10 18 6 11 8 11 12 0 2 -7 1 -15 -2 -18z
m4532 -25 c2 -15 -3 -28 -10 -31 -10 -3 -14 5 -14 29 0 39 19 41 24 2z m-258
12 c0 -5 -7 -10 -15 -10 -8 0 -15 5 -15 10 0 6 7 10 15 10 8 0 15 -4 15 -10z
m-3608 -142 c3 -62 4 -118 1 -124 -4 -11 -76 -64 -87 -64 -6 0 -28 49 -44 95
-6 17 -13 51 -16 77 l-6 47 58 40 c87 61 88 60 94 -71z m-207 -63 c3 -30 11
-57 16 -60 5 -4 9 -32 9 -64 0 -48 -4 -63 -25 -85 -37 -40 -49 -33 -64 37 -7
34 -17 73 -21 87 -5 14 -12 41 -15 60 -6 34 -4 36 37 57 24 12 46 22 49 22 4
1 10 -24 14 -54z m6485 -35 c0 -5 -5 -10 -11 -10 -5 0 -7 5 -4 10 3 6 8 10 11
10 2 0 4 -4 4 -10z m103 -33 c-17 -17 -35 -46 -41 -63 -12 -36 -105 -174 -149
-221 -16 -17 -40 -45 -54 -62 -32 -40 -39 -39 -39 7 0 33 9 47 70 112 112 118
143 160 120 160 -5 0 -10 -5 -10 -11 0 -6 -7 -9 -15 -6 -9 4 -21 -5 -32 -23
-19 -33 -34 -37 -52 -16 -9 11 -9 19 1 35 15 24 35 34 43 21 6 -9 43 6 55 22
10 13 125 86 129 82 3 -2 -9 -19 -26 -37z m-2861 -17 c-2 -16 -8 -30 -13 -30
-14 0 -11 48 4 53 6 3 12 6 13 6 0 1 -1 -12 -4 -29z m-3662 10 c0 -5 -4 -10
-10 -10 -5 0 -10 5 -10 10 0 6 5 10 10 10 6 0 10 -4 10 -10z m3592 -42 c-15
-15 -24 -6 -16 16 5 12 10 14 17 7 8 -8 8 -14 -1 -23z m-3743 -124 c9 -22 8
-30 -9 -54 -11 -15 -20 -33 -20 -39 0 -6 -4 -11 -8 -11 -14 0 -31 93 -21 112
14 26 44 22 58 -8z m155 -20 c12 -30 -40 -90 -102 -120 -29 -13 -36 -14 -43
-3 -24 38 6 102 59 125 40 18 79 17 86 -2z m3549 -55 c46 24 141 -28 176 -97
30 -60 36 -118 15 -163 l-17 -39 28 -30 c36 -37 54 -39 47 -4 -4 22 -2 25 19
22 16 -2 24 -9 23 -21 -1 -9 2 -17 7 -17 5 0 9 5 9 11 0 6 6 9 13 6 6 -2 11
-11 9 -21 -3 -18 13 -22 23 -6 3 6 11 10 18 10 6 0 2 -6 -9 -14 -24 -18 -12
-31 14 -15 16 10 23 10 36 -3 14 -14 12 -16 -22 -21 -20 -2 -45 0 -54 4 -13 7
-22 1 -39 -24 -30 -43 -37 -47 -82 -47 -44 0 -82 18 -116 54 -21 22 -23 29
-13 50 17 38 4 93 -30 121 -36 30 -39 30 -71 5 -14 -11 -32 -17 -40 -14 -21 8
-30 36 -16 45 16 10 24 99 10 99 -6 0 -11 -11 -11 -24 0 -14 -4 -28 -10 -31
-5 -3 -10 -15 -10 -25 0 -27 -16 -33 -35 -14 -9 9 -19 14 -22 10 -8 -8 -43 23
-43 39 0 6 -16 26 -35 45 -44 43 -44 57 1 66 25 5 32 9 22 15 -8 6 5 9 37 9
28 0 61 7 74 14 19 10 31 11 48 3 17 -7 29 -7 46 2z m-443 -144 c0 -8 -4 -15
-9 -15 -13 0 -22 16 -14 24 11 11 23 6 23 -9z m-3322 -82 c14 -32 16 -53 3
-53 -13 0 -17 8 -26 48 -8 39 5 42 23 5z m1656 -99 c11 -28 -5 -81 -29 -102
-29 -25 -65 -45 -71 -39 -7 7 44 118 63 139 20 22 29 23 37 2z m-1124 -93 c0
-5 -7 -11 -14 -14 -10 -4 -13 -1 -9 9 6 15 23 19 23 5z m3217 -17 c-3 -3 -12
-4 -19 -1 -8 3 -5 6 6 6 11 1 17 -2 13 -5z m-2040 -30 c-3 -3 -12 -4 -19 -1
-8 3 -5 6 6 6 11 1 17 -2 13 -5z m-47 -19 c0 -8 -4 -15 -10 -15 -15 0 -60 -42
-60 -56 0 -6 -16 -14 -36 -16 -35 -4 -36 -4 -30 26 7 31 19 43 71 62 43 17 65
16 65 -1z m-1198 -27 c-7 -7 -12 -8 -12 -2 0 14 12 26 19 19 2 -3 -1 -11 -7
-17z"/>
<path d="M3670 8221 c0 -5 5 -13 10 -16 6 -3 10 -2 10 4 0 5 -4 13 -10 16 -5
3 -10 2 -10 -4z"/>
<path d="M3541 8124 c0 -11 3 -14 6 -6 3 7 2 16 -1 19 -3 4 -6 -2 -5 -13z"/>
<path d="M4925 7810 c-3 -5 -1 -10 4 -10 6 0 11 5 11 10 0 6 -2 10 -4 10 -3 0
-8 -4 -11 -10z"/>
<path d="M4925 7757 c-4 -10 -5 -21 -1 -24 10 -10 18 4 13 24 -4 17 -4 17 -12
0z"/>
<path d="M6110 6457 c0 -8 10 -19 23 -25 22 -11 22 -11 -5 -11 -14 -1 -29 5
-31 12 -4 9 -8 8 -16 -3 -17 -24 -14 -26 34 -29 27 -1 45 2 45 9 0 6 6 10 13
8 6 -2 13 2 15 7 1 6 -7 11 -18 13 -12 2 -24 10 -27 18 -7 18 -33 18 -33 1z"/>
<path d="M6208 6403 c6 -2 18 -2 25 0 6 3 1 5 -13 5 -14 0 -19 -2 -12 -5z"/>
<path d="M6071 6304 c0 -11 3 -14 6 -6 3 7 2 16 -1 19 -3 4 -6 -2 -5 -13z"/>
<path d="M6201 6248 c4 -32 -2 -47 -22 -53 -15 -5 -18 -10 -10 -14 7 -5 13
-18 14 -29 1 -12 7 -22 14 -22 7 0 10 7 7 15 -4 9 0 15 10 15 10 0 13 6 10 15
-6 14 5 19 31 16 6 0 11 7 11 17 1 9 3 24 5 32 3 11 -6 16 -34 18 -27 2 -38
-1 -36 -10z"/>
<path d="M6245 6160 c3 -5 -3 -18 -15 -30 -11 -11 -20 -27 -20 -35 0 -21 26
-19 34 3 3 9 10 27 15 39 7 16 6 23 -5 27 -8 3 -12 1 -9 -4z"/>
<path d="M5766 6064 c-9 -22 -8 -24 9 -24 8 0 15 6 15 14 0 22 -17 28 -24 10z"/>
<path d="M6116 6063 c-24 -24 37 -37 65 -14 20 16 20 17 -19 18 -22 1 -43 -1
-46 -4z"/>
<path d="M6080 6029 c0 -5 5 -7 10 -4 6 3 10 8 10 11 0 2 -4 4 -10 4 -5 0 -10
-5 -10 -11z"/>
<path d="M5964 5979 c-7 -12 9 -15 46 -9 l35 6 -38 5 c-21 3 -40 2 -43 -2z"/>
<path d="M3714 5825 c-45 -23 -71 -25 -59 -4 13 20 -32 7 -70 -21 -22 -16 -85
-59 -140 -96 -107 -72 -175 -130 -175 -151 0 -7 -4 -13 -10 -13 -5 0 -10 -6
-10 -14 0 -20 30 -29 36 -11 8 19 114 77 193 105 48 17 87 23 150 22 205 0
359 -25 422 -68 19 -13 39 -24 43 -24 14 0 35 -34 36 -56 0 -15 13 -29 43 -44
72 -38 137 -83 131 -91 -3 -5 6 -9 20 -9 13 0 37 -11 53 -24 15 -13 37 -25 47
-27 29 -6 31 -28 3 -38 -14 -5 -76 -9 -138 -9 -156 0 -338 -18 -433 -42 -43
-12 -85 -19 -93 -15 -23 8 -40 -7 -17 -17 14 -5 10 -7 -16 -5 -22 1 -34 -2
-33 -9 1 -7 -5 -10 -15 -7 -38 9 -297 -151 -286 -177 4 -8 6 -23 6 -33 -1 -10
7 -27 16 -37 9 -10 23 -25 29 -34 12 -13 18 -13 65 0 47 15 53 15 64 0 10 -15
12 -14 17 4 7 29 27 25 101 -20 36 -22 72 -40 80 -40 8 0 18 -4 21 -10 3 -5
24 -10 46 -10 24 0 38 4 34 10 -3 6 -19 10 -35 10 -39 0 -145 56 -165 87 -16
24 -16 27 2 52 23 30 128 85 149 77 8 -3 14 -18 14 -35 0 -55 63 -164 116
-200 28 -20 45 -23 124 -22 108 0 153 13 179 49 27 39 61 148 61 199 0 23 2
43 4 43 17 0 136 -119 136 -136 0 -8 9 -14 20 -14 11 0 20 -4 20 -10 0 -5 -5
-10 -11 -10 -6 0 -23 -8 -37 -19 -15 -10 -38 -22 -52 -26 -14 -4 -46 -20 -71
-36 -74 -47 -132 -59 -301 -63 -84 -3 -166 -5 -181 -5 -16 -1 -26 -5 -22 -10
3 -5 1 -12 -5 -16 -17 -10 0 -26 21 -20 12 4 21 1 25 -9 4 -10 18 -16 35 -16
22 0 32 -7 44 -30 15 -29 32 -35 93 -33 6 1 12 -3 12 -8 0 -5 -7 -9 -15 -9
-17 0 -20 -16 -5 -25 6 -4 48 -9 93 -11 45 -3 88 -7 95 -10 8 -2 20 3 28 11
18 17 50 20 59 5 4 -6 11 -8 16 -5 5 4 25 1 43 -6 28 -10 38 -10 50 0 12 10
22 8 54 -8 22 -11 42 -27 45 -36 8 -20 41 -19 61 1 9 8 17 12 17 7 1 -4 2 -12
3 -18 2 -16 21 -15 20 1 -1 8 6 14 16 14 16 0 50 29 50 44 0 4 -10 4 -22 0
-23 -6 -23 -6 2 20 13 15 30 24 37 22 8 -3 13 2 13 14 0 13 7 20 20 20 29 0
24 17 -11 35 -16 9 -38 24 -48 34 -11 11 -31 25 -47 32 -50 25 -41 38 28 41
55 3 63 6 66 24 2 12 -6 38 -18 58 -11 21 -18 41 -15 46 9 14 46 7 55 -11 16
-29 69 -81 78 -75 5 3 7 19 4 35 -3 24 2 37 28 62 23 24 34 29 43 20 29 -29
36 -12 31 77 -6 101 -30 185 -85 295 -22 43 -37 82 -34 87 3 5 21 17 40 25 68
33 73 129 11 258 -38 80 -50 91 -59 56 -5 -20 -6 -20 -32 -3 -21 14 -28 15
-35 5 -6 -11 -14 -10 -41 2 -80 34 -91 36 -147 31 -44 -5 -82 0 -163 20 -93
23 -112 25 -155 16 -27 -6 -72 -9 -101 -5 -29 3 -101 8 -160 10 -59 2 -129 11
-155 19 -45 14 -49 14 -94 -9z m641 -1035 c-3 -5 -13 -10 -21 -10 -8 0 -14 5
-14 10 0 6 9 10 21 10 11 0 17 -4 14 -10z m213 -7 c-10 -2 -26 -2 -35 0 -10 3
-2 5 17 5 19 0 27 -2 18 -5z m88 -128 c-1 -33 -16 -33 -16 0 0 14 4 25 9 25 5
0 8 -11 7 -25z"/>
<path d="M3235 5479 c-10 -15 3 -25 16 -12 7 7 7 13 1 17 -6 3 -14 1 -17 -5z"/>
<path d="M5350 4870 c0 -5 7 -10 16 -10 8 0 12 5 9 10 -3 6 -10 10 -16 10 -5
0 -9 -4 -9 -10z"/>
<path d="M5390 4846 c0 -2 7 -9 15 -16 13 -11 14 -10 9 4 -5 14 -24 23 -24 12z"/>
<path d="M3890 4802 c0 -5 7 -13 16 -16 10 -4 14 -1 12 6 -5 15 -28 23 -28 10z"/>
<path d="M2396 4595 c4 -8 8 -15 10 -15 2 0 4 7 4 15 0 8 -4 15 -10 15 -5 0
-7 -7 -4 -15z"/>
<path d="M4414 4535 c2 -17 40 -55 55 -55 5 0 11 -6 14 -12 2 -7 8 -10 12 -6
7 7 -65 88 -78 88 -3 0 -4 -7 -3 -15z"/>
<path d="M5378 4213 c7 -3 16 -2 19 1 4 3 -2 6 -13 5 -11 0 -14 -3 -6 -6z"/>
<path d="M5317 4203 c-4 -3 -7 -13 -7 -21 0 -12 3 -12 15 -2 8 7 15 16 15 21
0 11 -14 12 -23 2z"/>
<path d="M2610 4170 c0 -5 5 -10 10 -10 6 0 10 5 10 10 0 6 -4 10 -10 10 -5 0
-10 -4 -10 -10z"/>
<path d="M2613 3755 c-3 -9 -3 -18 0 -21 9 -9 27 6 27 22 0 19 -19 18 -27 -1z"/>
<path d="M2880 3686 c0 -19 5 -38 10 -41 6 -3 10 -19 10 -35 0 -16 5 -32 11
-36 8 -5 10 3 5 27 -4 19 -10 51 -13 72 -7 49 -23 58 -23 13z"/>
<path d="M2920 3531 c0 -6 5 -13 10 -16 6 -3 10 1 10 9 0 9 -4 16 -10 16 -5 0
-10 -4 -10 -9z"/>
<path d="M5412 2130 c0 -14 2 -19 5 -12 2 6 2 18 0 25 -3 6 -5 1 -5 -13z"/>
<path d="M5040 2094 c0 -8 5 -12 10 -9 6 4 8 11 5 16 -9 14 -15 11 -15 -7z"/>
<path d="M5342 1999 c1 -13 8 -23 13 -21 15 3 12 35 -3 40 -9 3 -13 -3 -10
-19z"/>
<path d="M5600 1397 c0 -19 47 -60 59 -52 18 11 12 32 -14 49 -30 19 -45 20
-45 3z"/>
<path d="M1710 7410 c0 -5 5 -10 10 -10 6 0 10 5 10 10 0 6 -4 10 -10 10 -5 0
-10 -4 -10 -10z"/>
<path d="M1621 7194 c0 -11 3 -14 6 -6 3 7 2 16 -1 19 -3 4 -6 -2 -5 -13z"/>
<path d="M1820 6614 c0 -16 9 -18 28 -5 10 6 9 10 -7 14 -14 3 -21 0 -21 -9z"/>
<path d="M1690 6551 c0 -6 5 -13 10 -16 6 -3 10 1 10 9 0 9 -4 16 -10 16 -5 0
-10 -4 -10 -9z"/>
<path d="M1441 1964 c0 -11 3 -14 6 -6 3 7 2 16 -1 19 -3 4 -6 -2 -5 -13z"/>
<path d="M2160 1161 c0 -23 5 -41 10 -41 6 0 10 15 10 34 0 19 -4 38 -10 41
-6 4 -10 -10 -10 -34z"/>
<path d="M5270 624 c0 -8 5 -12 10 -9 6 3 10 10 10 16 0 5 -4 9 -10 9 -5 0
-10 -7 -10 -16z"/>
<path d="M5380 625 c0 -8 2 -15 4 -15 2 0 6 7 10 15 3 8 1 15 -4 15 -6 0 -10
-7 -10 -15z"/>
<path d="M5708 293 c7 -3 16 -2 19 1 4 3 -2 6 -13 5 -11 0 -14 -3 -6 -6z"/>
<path d="M4340 10232 c0 -10 66 -9 76 1 4 4 -11 7 -34 7 -23 0 -42 -4 -42 -8z"/>
<path d="M4270 10209 c0 -5 5 -7 10 -4 6 3 10 8 10 11 0 2 -4 4 -10 4 -5 0
-10 -5 -10 -11z"/>
<path d="M3437 9721 c-4 -17 -3 -21 5 -13 5 5 8 16 6 23 -3 8 -7 3 -11 -10z"/>
<path d="M3691 9650 c0 -37 2 -41 9 -22 6 13 6 31 0 45 -7 18 -9 14 -9 -23z"/>
<path d="M3800 9610 c0 -5 5 -10 10 -10 6 0 10 5 10 10 0 6 -4 10 -10 10 -5 0
-10 -4 -10 -10z"/>
<path d="M3360 9552 c0 -12 78 -52 101 -52 10 0 19 5 19 10 0 6 -11 10 -24 10
-14 0 -28 5 -31 10 -3 6 -15 10 -26 10 -10 0 -19 5 -19 10 0 6 -4 10 -10 10
-5 0 -10 -4 -10 -8z"/>
<path d="M3180 9470 c0 -5 23 -10 51 -10 31 0 48 4 44 10 -3 6 -26 10 -51 10
-24 0 -44 -4 -44 -10z"/>
<path d="M1378 7353 c7 -3 16 -2 19 1 4 3 -2 6 -13 5 -11 0 -14 -3 -6 -6z"/>
<path d="M1330 7340 c0 -6 7 -10 15 -10 8 0 15 2 15 4 0 2 -7 6 -15 10 -8 3
-15 1 -15 -4z"/>
<path d="M1298 7313 c7 -3 16 -2 19 1 4 3 -2 6 -13 5 -11 0 -14 -3 -6 -6z"/>
<path d="M1156 4235 c4 -8 10 -12 15 -9 14 8 10 24 -6 24 -9 0 -12 -6 -9 -15z"/>
<path d="M10156 2725 c-3 -9 1 -18 10 -22 19 -7 28 2 21 22 -8 19 -23 19 -31
0z"/>
<path d="M10196 2690 c-24 -24 -32 -27 -49 -19 -20 11 -67 -5 -67 -23 0 -15
32 -22 39 -9 4 7 19 12 32 13 13 0 39 5 57 10 25 7 32 15 32 34 0 31 -9 30
-44 -6z"/>
<path d="M9210 2480 c-12 -8 -10 -10 8 -10 13 0 20 4 17 10 -7 12 -6 12 -25 0z"/>
<path d="M9398 2073 c6 -2 18 -2 25 0 6 3 1 5 -13 5 -14 0 -19 -2 -12 -5z"/>
<path d="M9488 2053 c6 -2 18 -2 25 0 6 3 1 5 -13 5 -14 0 -19 -2 -12 -5z"/>
<path d="M1275 1910 c-3 -5 -1 -10 4 -10 6 0 11 5 11 10 0 6 -2 10 -4 10 -3 0
-8 -4 -11 -10z"/>
<path d="M1260 1780 c-9 -6 -10 -10 -3 -10 6 0 15 5 18 10 8 12 4 12 -15 0z"/>
<path d="M9180 1780 c0 -8 5 -22 10 -30 9 -13 10 -13 10 0 0 8 -5 22 -10 30
-9 13 -10 13 -10 0z"/>
<path d="M9201 1713 c1 -10 5 -31 9 -48 7 -28 8 -28 9 12 0 23 -3 45 -9 48 -5
3 -9 -2 -9 -12z"/>
<path d="M1460 596 c0 -9 5 -16 10 -16 6 0 10 4 10 9 0 6 -4 13 -10 16 -5 3
-10 -1 -10 -9z"/>
<path d="M1486 511 c-4 -7 -5 -15 -2 -18 9 -9 19 4 14 18 -4 11 -6 11 -12 0z"/>
<path d="M3665 340 c-9 -15 4 -50 20 -50 21 0 27 17 15 40 -12 22 -25 26 -35
10z"/>
<path d="M3631 274 c0 -11 3 -14 6 -6 3 7 2 16 -1 19 -3 4 -6 -2 -5 -13z"/>
</g>
</svg>
